<svg width="56" height="110" viewBox="0 0 56 110" fill="none" xmlns="http://www.w3.org/2000/svg">
<path d="M28 102 Q24 108 20 112" stroke="#C4B8A8" strokeWidth="0.7" strokeLinecap="round" fill="none" opacity="0.25"/>
<path d="M28 102 Q32 108 38 112" stroke="#C4B8A8" strokeWidth="0.7" strokeLinecap="round" fill="none" opacity="0.25"/>
<path d="M28 102 Q28 80 28 44" stroke="#1A1A1A" strokeWidth="1.3" strokeLinecap="round" opacity="0.45"/>
<path d="M28 74 Q16 66 14 50 Q22 52 28 60Z" fill="#9AA889" opacity="0.18"/>
<path d="M28 74 Q16 66 14 50" stroke="#1A1A1A" strokeWidth="0.8" strokeLinecap="round" fill="none" opacity="0.3"/>
<path d="M28 64 Q40 56 42 40 Q34 42 28 50Z" fill="#9AA889" opacity="0.18"/>
<path d="M28 64 Q40 56 42 40" stroke="#1A1A1A" strokeWidth="0.8" strokeLinecap="round" fill="none" opacity="0.3"/>
<path d="M28 54 Q18 48 20 34 Q26 36 28 44Z" fill="#9AA889" opacity="0.15"/>
<path d="M28 54 Q18 48 20 34" stroke="#1A1A1A" strokeWidth="0.7" strokeLinecap="round" fill="none" opacity="0.25"/>
</svg>